<svg
    xmlns="http://www.w3.org/2000/svg"
    viewBox="0 0 1000 1000">

    <!-- Outer ring -->
    <circle
        cx="500"
        cy="500"
        r="470"
        fill="none"
        stroke="currentColor"
        stroke-width="14"/>

    <!-- Tick marks -->
    <g
        fill="none"
        stroke="currentColor"
        stroke-width="7"
        stroke-linecap="round">

        <line x1="500" y1="38" x2="500" y2="68"/>

        <use href="#tick" transform="rotate(5 500 500)"/>
        <use href="#tick" transform="rotate(10 500 500)"/>
        <use href="#tick" transform="rotate(15 500 500)"/>
        <use href="#tick" transform="rotate(20 500 500)"/>
        <use href="#tick" transform="rotate(25 500 500)"/>
        <use href="#tick" transform="rotate(30 500 500)"/>
        <use href="#tick" transform="rotate(35 500 500)"/>
        <use href="#tick" transform="rotate(40 500 500)"/>
        <use href="#tick" transform="rotate(45 500 500)"/>
        <use href="#tick" transform="rotate(50 500 500)"/>
        <use href="#tick" transform="rotate(55 500 500)"/>
        <use href="#tick" transform="rotate(60 500 500)"/>
        <use href="#tick" transform="rotate(65 500 500)"/>
        <use href="#tick" transform="rotate(70 500 500)"/>
        <use href="#tick" transform="rotate(75 500 500)"/>
        <use href="#tick" transform="rotate(80 500 500)"/>
        <use href="#tick" transform="rotate(85 500 500)"/>
        <use href="#tick" transform="rotate(90 500 500)"/>
        <use href="#tick" transform="rotate(95 500 500)"/>
        <use href="#tick" transform="rotate(100 500 500)"/>
        <use href="#tick" transform="rotate(105 500 500)"/>
        <use href="#tick" transform="rotate(110 500 500)"/>
        <use href="#tick" transform="rotate(115 500 500)"/>
        <use href="#tick" transform="rotate(120 500 500)"/>
        <use href="#tick" transform="rotate(125 500 500)"/>
        <use href="#tick" transform="rotate(130 500 500)"/>
        <use href="#tick" transform="rotate(135 500 500)"/>
        <use href="#tick" transform="rotate(140 500 500)"/>
        <use href="#tick" transform="rotate(145 500 500)"/>
        <use href="#tick" transform="rotate(150 500 500)"/>
        <use href="#tick" transform="rotate(155 500 500)"/>
        <use href="#tick" transform="rotate(160 500 500)"/>
        <use href="#tick" transform="rotate(165 500 500)"/>
        <use href="#tick" transform="rotate(170 500 500)"/>
        <use href="#tick" transform="rotate(175 500 500)"/>
        <use href="#tick" transform="rotate(180 500 500)"/>
        <use href="#tick" transform="rotate(185 500 500)"/>
        <use href="#tick" transform="rotate(190 500 500)"/>
        <use href="#tick" transform="rotate(195 500 500)"/>
        <use href="#tick" transform="rotate(200 500 500)"/>
        <use href="#tick" transform="rotate(205 500 500)"/>
        <use href="#tick" transform="rotate(210 500 500)"/>
        <use href="#tick" transform="rotate(215 500 500)"/>
        <use href="#tick" transform="rotate(220 500 500)"/>
        <use href="#tick" transform="rotate(225 500 500)"/>
        <use href="#tick" transform="rotate(230 500 500)"/>
        <use href="#tick" transform="rotate(235 500 500)"/>
        <use href="#tick" transform="rotate(240 500 500)"/>
        <use href="#tick" transform="rotate(245 500 500)"/>
        <use href="#tick" transform="rotate(250 500 500)"/>
        <use href="#tick" transform="rotate(255 500 500)"/>
        <use href="#tick" transform="rotate(260 500 500)"/>
        <use href="#tick" transform="rotate(265 500 500)"/>
        <use href="#tick" transform="rotate(270 500 500)"/>
        <use href="#tick" transform="rotate(275 500 500)"/>
        <use href="#tick" transform="rotate(280 500 500)"/>
        <use href="#tick" transform="rotate(285 500 500)"/>
        <use href="#tick" transform="rotate(290 500 500)"/>
        <use href="#tick" transform="rotate(295 500 500)"/>
        <use href="#tick" transform="rotate(300 500 500)"/>
        <use href="#tick" transform="rotate(305 500 500)"/>
        <use href="#tick" transform="rotate(310 500 500)"/>
        <use href="#tick" transform="rotate(315 500 500)"/>
        <use href="#tick" transform="rotate(320 500 500)"/>
        <use href="#tick" transform="rotate(325 500 500)"/>
        <use href="#tick" transform="rotate(330 500 500)"/>
        <use href="#tick" transform="rotate(335 500 500)"/>
        <use href="#tick" transform="rotate(340 500 500)"/>
        <use href="#tick" transform="rotate(345 500 500)"/>
        <use href="#tick" transform="rotate(350 500 500)"/>
        <use href="#tick" transform="rotate(355 500 500)"/>

    </g>

    <!-- Indicator -->
    <circle
        cx="500"
        cy="105"
        r="25"
        fill="currentColor"/>

    <defs>
        <line
            id="tick"
            x1="500"
            y1="38"
            x2="500"
            y2="68"/>
    </defs>

</svg>